<?xml version="1.0" encoding="UTF-8"?><svg id="Layer_2" xmlns="http://www.w3.org/2000/svg" viewBox="0 0 3201.63 2528.45"><defs><style>.cls-1{fill:#2b2d42;}.cls-2{fill:#f4f3ee;}</style></defs><g id="_ŒƒCƒ___6"><path class="cls-1" d="M20.66,1340.41s18.14-1.27,30.59,.63c18.55,2.84,55.11,19.16,103.95,17.58,54.1-1.75,103.36-32.48,141.87-64.92,44.78-37.72,86.81-102.43,91.72-110.1,26.34-7.83,55.49-14.96,82.11-21.43l36.15,9.07c.17,.09,26.52,4.48,27.15,4.71,.36,.13,1.09,.31,2.1,.53-10.89,9.07-21.76,18.98-32.01,29.06-6.9-.44-24.55,0-52.25,11.47-36.47,15.08-57.33,42.65-66.07,73.94-8.74,31.29-1.64,64.24,7.77,83.37,9.41,19.12,24.95,44.49,24.95,44.49,0,0,34.34-15.95,57.22-44.18,22.87-28.23,36.55-59.86,39.51-88.18,3.72-35.57-4.44-73.96-5.23-77.58,10.99-10.73,22.71-21.26,34.41-30.8,18.59,3.28,61.17,9.56,84.89,13.07,60.58,8.96,199.33,27.59,206.22,28.73,6.9,1.14,18.72,4.96,18.72,4.96,71.32,24.86,127.67,38.1,148.92,42.7l.24,.05,4.23,.47,17.94,4.82,.25,.04c3.31,.54,46.41,7.54,119.85,19.72-13.04,5.68-32.28,15.29-32.28,15.29l-60.5,48.35c-8.01,2.97-27.43,12.21-34.62,15.29-7.08,3.16-14.09,6.48-21.03,9.93-3.25,.36-7.17,.59-11.19,.34-9.99-.61-42.63-14.6-88.87-7.67-46.24,6.92-89.27,28.71-117.82,56.85-28.56,28.14-42.85,65.23-48.8,98.05-5.95,32.82-12.42,69.45-14.56,77.06-2.14,7.61-1.9,12.61,2.21,9.77,4.12-2.84,21.69-6.61,37-8.51,15.3-1.91,44.98,3.29,96.62-10.17,46.55-12.13,85.34-53.85,101.86-81.55,23.46-39.31,29.8-102.67,41.62-121.34,1.91-3.03,3.48-5.09,4.7-6.52,8.11-4.21,16.3-8.22,24.62-11.89,8.78-3.73,18.35-6.92,27.91-9.49-2.04,13.22-1.19,26.59-1.08,39.43,.01,.5,.07,.98,.09,1.47-4,3.4-18.22,16.21-33.11,38.7-17.29,26.1-32.49,81-15.23,129.04-.77,1.45-1.55,2.88-2.32,4.33-12.12,3.32-61.69,17.11-87.08,27.39-29.06,11.76-58.56,34.66-75.19,68.3-16.63,33.64-21.6,93.02-25.82,122.45-4,27.92-4.47,37.41-10.5,51.45-.33,.76-.39,1.8,.8,.9,6.5-4.89,29.61-21.06,57.81-26.71,33.38-6.68,82.61-11.22,119.43-57.87,36.82-46.65,38.54-96.27,37.35-128.81-.92-25.09-8.23-43.47-11.78-51.68,.14-.26,.55-1.11,.69-1.37,19.43,46.73,59.91,84.42,104.1,98.61,45.53,14.62,81.14,8.78,81.14,8.78,0,0-6.31-43.81-5.84-84.35,.51-43.67-3.13-95.51-37.34-138.38-30.81-38.62-80.77-56.88-90.39-60.13-.04-1.18-.12-2.37-.14-3.55-.09-12.45-.15-25.39,1.89-37.26l2.9-6.36s30.61-26.65,59.65-43.32l46.86-20.93c64.19,10.68,147.49,24.64,244.95,41.22,87.94,14.96,269.07,51.88,284.42,55.54,2.89,.69,13.14,8.11,13.14,8.11,30.12,22.59,110.52,83.37,197.52,144.69l17.94,12.6c46.1,32.25,86.82,58.74,121.54,81.11,51.21,33.01,90.48,60,120.41,77.6,1.79,3.11,2.05,7.41,3.3,9.47-1.15,8.49-1.26,10.66-1.8,19.11-9.93,2.46-19.33,5.42-28.47,8.73-6.12-3.79-18.23-10.51-36.65-17.19-16.01-5.81-40.78-8.82-66.51-5.13-11.66-32.85-18.9-67.7-18.9-67.7,0,0-32.25,6.05-66.64,32.67-34.39,26.62-57.88,75.22-58.74,122.54-.42,23.15,6.74,45.32,16.86,63.97-.27,17.51,1.83,32.43,4.22,43.43-10.82-6.64-18.62-11.43-19.8-12.17-22.67-14.16-65.32-43.16-75.2-50.18-7.54-4.7-16-10.73-24.04-16.71-.58-1.06-1.21-2.28-1.9-3.82-7.65-16.88-5.57-70.25-20.5-105.62-10.52-24.92-37.9-64.07-75.16-79.55-41.34-17.17-66.59-16.29-79.08-19.65-12.49-3.36-26.66-8.53-29.75-11.36-3.09-2.84-3.87,1.29-2.97,7.85,.9,6.57,2.03,37.75,3.16,65.7,1.13,27.96,8.7,60.43,29.16,87.11,20.46,26.69,53.67,49.78,91.28,60.89,37.61,11.11,66.34,3.28,74.71,3.93,2.32,.18,4.57,.55,6.62,.97,7.59,6.25,15.49,12.59,22.68,17.12,9.22,5.6,46.54,32.23,70.62,47.14,2.82,1.75,16.5,10.09,33.19,20.21,1.68,5.62,2.98,8.72,2.98,8.72,0,0,2.58-1.03,6.99-2.68,21.16,12.81,44.51,26.87,56.44,33.83-16.15,1.83-33.41,4.01-51.02,6.45-2.57-2.23-8.17-6.84-16.95-12.61-18.8-12.36-57.54-26.41-107.51-26-39.87,.32-90.65,25.41-115.83,50.82-25.18,25.41-49.54,61.74-49.54,61.74,0,0,13.51,1.33,22.44,4.29,13.3,4.41,38.16,20.99,74.31,25.94,40.04,5.47,80.14-10.98,112.54-30.04,32.77-19.27,66.54-53.82,77.8-65.81,21.63-2.81,42.77-5.25,61.97-7.17l40.45,21.97c-10.69,4.63-17.12,7.38-18.21,7.88-8.75,5.14-87.29,51.13-148.4,82.49-84.78,43.49-99.06,49.68-99.19,49.74l-8.64,5.37c-12.29-6.39-61.44-31.69-89.01-42.15-31.69-12.02-71.89-15.51-109.78-1.05-37.89,14.47-85.44,57.91-110.39,78.14-23.68,19.2-31.02,26.39-46.11,33.09-.81,.36-1.63,1.14-.03,1.3,8.74,.9,38.95,5.04,65.45,21.27,23.65,14.48,53.56,36.54,94.02,42.26-2.39,2.12-4.78,4.28-7.16,6.53-34.89,33.01-59.08,96.81-60.43,139.88-1.35,43.07,6.99,95.1,6.99,95.1,0,0,13.01-9.91,23.31-14.63,15.34-7.03,50.89-12.81,86.81-38.12,39.8-28.04,61.66-75.46,74.58-118.85,11.9-39.96,14.15-91.76,14.53-115.68,11.54-10.08,20.99-20.39,28.74-29.39,16.93-19.68,25.91-40.88,29.47-50.67l13.58-2.97c.76-.09,7.19-1.35,43.28-18.5-4.94,16.73-8.78,33.25-12.17,50.27-6.79,3.68-25.45,15.88-47.33,48.04-27.57,40.52-30.43,83.35-18.16,121.79,12.27,38.44,42.1,67.8,64.9,81.23,22.81,13.43,56.23,29.16,56.23,29.16,0,0,24.77-39.98,29.26-84.87,4.49-44.89-2.88-87.05-19.12-118.47-21.43-41.45-58.6-77.22-58.6-77.22l-.66-.15c4.09-18.26,9.11-36.33,14.78-54.15,12.11-5.84,26.96-13.17,45.21-22.38,54.19-27.34,120.29-64.78,143.96-78.33,0,8.87,.4,26.21,3.25,43.14,2.87,17.08,6.07,26,10.02,34.33,.2,.42,.39,.79,.58,1.15,2.73,7.44,5.56,14.82,8.54,22.13-2.32,4.24-8.82,17.25-14.33,38.8-6.84,26.74-3.5,77.25,25.6,111.74,29.1,34.49,75.72,56.31,117.17,55.32,41.45-.99,68.96-15.92,68.96-15.92,0,0-17.65-34.08-28.8-67.42-12.02-35.91-29.76-77.33-69.99-102.71-34.75-21.91-80.72-22.57-92.61-22.34-3.97-11.11-7.6-22.41-11.25-33.3l-.05-.32c-1.53-3.24-3.3-16.56-4.73-29.75-.92-8.5-.67-30.34-.47-41.15,11.44-4.35,26.27-7.93,63.74-23,0,0,127.89-64.62,238.78-107.26,110.89-42.64,212.58-64.17,212.58-64.17,64.93,16.95,118,35.23,219.86,59.37l33.56,10.57c98.04,23.24,255.18,65.59,255.18,65.59,0,0,96.03,38.14,141.1,54.89l8.93-93.95c-85.79-18.63-133.65-29.66-253.55-55.28,0,0-80.5-99.52-148.96-264.3-65.9-158.6-68.76-234.68-68.76-234.68l18.37-29.89c14.81-23.52,24.68-39.42,36.38-59.63l5.21-10.61c40.88-31.63,124.68-95.6,150.35-116.78,9.54-7.9,18.53-15.73,27.33-23.58,4.19,.53,11.78,1.24,22.21,1.28,25.08,.09,76.49-3.38,122.91-34.2,37.03-24.59,62.49-85.96,70.52-125.02,8.04-39.07,8.64-87.83,8.64-87.83,0,0-13.43,6.99-23.57,9.66-15.1,3.98-48.43,3.65-85.19,21.05-40.72,19.28-74.55,53.16-93.19,90.69-20.25,40.77-25.93,103.26-27.01,117.95-8.92,7.22-17.98,14.54-27.45,22.29-25.26,20.63-96.13,69.84-134.86,98.24,2.71-6.59,14.61-29.4,19.85-34.19,7.63-6.98,41.46-21.17,69.52-60.48,28.06-39.3,42.78-86.9,42.4-128.31-.18-19.38-3.35-35.25-9.49-52.28,14.48-23.48,34.46-60.09,55.33-95.42,7.34-.69,31.42-3.85,55.87-16.73,29.32-15.44,72.23-42.11,94.72-98.25,22.5-56.13,1.55-101.87-9.48-134.71-9.31-27.74-6.76-56.34-5.74-64.55,.19-1.51-.7-.92-1.2-.25-9.33,12.44-17.47,17.66-40.08,35.35-23.82,18.64-73.7,53.13-94.96,84.85-21.26,31.72-26.51,69.36-22.16,100.97,3.38,24.5,13.95,67.17,18.54,85.14-20.33,34.67-40.66,68.21-55.22,91.62-6.59-15.66-14.95-29.94-23.89-42.39-20.1-27.99-42.65-59.1-46.76-66.15-4.11-7.05-7.99-10.47-8.84-5.37-.85,5.1-10.67,20.85-20.25,33.59-9.3,12.36-33.3,30.06-59.48,75.01-8.86-12.3-19.61-22.89-31.7-31.78-32.85-24.14-74.66-30.42-101.28-27.86-26.62,2.56-63.28,9.55-63.28,9.55,0,0,3.49,47.38,26.47,86.75,22.98,39.36,54.04,69.45,85.96,85.48,24.59,12.35,52.41,19.93,71.32,24.11,14.68,43.32,52.34,88.44,57.4,109.34,.09,.36,.12,.66,.2,1-3.93,11.88-8.31,23.57-13.2,35.03l-16.16,24.26-.15,.24c-5.86,9.36-15.51,22.84-20.86,32.02-6.36,10.92-14.07,18.69-21.77,30.39l-12.05,17.23c-24.46-51.26-47.96-98.58-71.73-144.45-12.18-23.44-23.13-44-33.5-62.86-3.06-5.56-6.14-11.11-9.25-16.66l-44.32-78.28c-25.7-45.34-53.12-93.35-82.49-141.26,1.82-10.92,5.24-21.93,8.55-32.65,2.28-6.99,4.82-13.9,7.54-20.74l.35,.02s61.8,2.32,109.26-27.51c47.46-29.84,68.45-78.63,82.68-120.94,13.21-39.27,34.07-79.41,34.07-79.41,0,0-32.39-17.64-81.25-18.88-48.86-1.24-103.85,24.4-138.21,65-34.36,40.6-38.39,100.14-30.37,131.66,6.27,24.67,14.76,41.19,18.17,47.22-3.01,6.35-5.83,12.81-8.17,19.84-2.85,9.19-6.53,18.13-8.83,27.23-.97-1.57-1.87-3.17-2.9-4.71-32.75-48.94-56.09-80.91-97.2-130.22l-1.5-1.57c5.5-31.94,5.27-72.76,8.27-104.83,.96-11.04,1.7-22.05,2.24-33.06,18.24-17.96,36.36-51.78,46.96-81.12,30.83-85.3-21.53-204.45-89.7-250.72-33.24,71.31-101.2,104.85-105.05,179.82-3.77,73.58,80.63,123.54,138.77,152.33l2.1,.53c-.88,8.13-1.79,16.46-2.61,25.29-3.03,30.5-4.92,69.08-10.07,99.95l-.4-.35s-14.35-12.89-18.4-20.49c-4.05-7.6-14.14-18.27-14.14-18.27l-18.02-17.24c.61-8.67,.11-29.47-12.6-61.86-17.2-43.81-49.62-69.28-86.75-80.37-37.13-11.09-76.57-3.34-99.58,7.47-23.01,10.81-53.59,28.8-53.59,28.8,0,0,18.29,41.3,51.46,69.18,33.17,27.88,70.6,44.87,104.31,49.01,44.48,5.46,92.99-4.65,92.99-4.65l1.34-1.23c9.87,10.19,18.55,19.79,24.57,29.27l18.27,27.64,.17,.21c40.07,48.73,75.38,102.31,103.1,147.47,2.19,3.57,4.34,7.16,6.51,10.74-17.25-8.25-35.15-15.83-54.52-22.06-.54-.17-1.09-.31-1.63-.48-3.12-57.02-43.11-110.7-108.4-114.95-69.12-4.5-131.04,55.81-202.4,58.95,52.12,23.64,70.43,77.68,129.1,99.92,59.59,22.59,129.3,9.92,166.23-22.43,4.1-3.59,10.18-10.96,13.42-14.99,.1,.03,.21,.06,.31,.1,20.16,6.64,43.52,17.61,64.08,27.98,26.65,44.54,51.81,89.3,75.49,131.75l45.08,80.93c6.78,12.33,14.32,27.75,22.32,42.9-31.99-3.77-71.48-7.73-137.15-2.69l-8.62,1.21c-5.4-3.33-10.88-6.5-16.42-9.55l.13-.03s-8.86-7.94-14.41-16.63c-5.56-8.69-13.72-44.35-47.54-78.65-33.82-34.3-78.07-56.9-118.83-63.61-40.76-6.7-80.31,3.9-111.25,18.87-30.94,14.96-65.36,31.8-73,34.63-7.64,2.83-11.65,6.06-6.79,7.77,4.86,1.7,18.66,14.05,29.54,25.64,10.88,11.59,24.55,39.45,67.09,74.27,27.06,22.16,64.02,32.12,95.07,35.02-3.71,1.06-7.46,2.18-11.25,3.42-43.92,14.39-91.17,59.96-110.03,96.88-18.87,36.92-32.98,85.62-32.98,85.62,0,0,15.39-3.28,26.29-3.16,16.24,.19,49.54,9.75,91.19,2.49,46.15-8.04,84.64-40.33,113.71-72.78,31.36-35,57.88-89.6,64.17-103.05,16.31-7.7,32.67-15.29,49.09-22.72l21.19-2.67c80.46-5.59,129.54,9.3,143.81,13.28l5.33,10.22c25.9,50.54,52.2,104.25,78.17,159.66,8.06,42.15,16.29,85.7,28.46,128.43,20.1,70.58,37.8,126.47,78.97,211.49,41.17,85.02,82.16,145.38,82.16,145.38-62.65-13.34-160.99-33.98-215.32-45.34-191.04-39.96-349.85-79.98-395.69-89.83l-6.65-1.43c-4.7-2.08-9.59-5.64-16.62-8.94,18.56-16.06,30.06-40.83,26.8-71.22-3.55-33.07-9.74-55.14-12.27-85.58-2.3-27.59-.33-49.6-.33-49.6,0,0-39.74,10.26-77.09,2.98-37.35-7.28-88.55,29.84-74.2,92.27,3.84,16.75,9.32,33.05,15.27,47.97-3.19-1.82-6.43-3.68-9.76-5.6-128.25-73.8-329.84-221.52-389.82-265.97,0,0-4.24-6.3-7.76-9.97-3.52-3.67-9.72-6.77-9.72-6.77-54.77-12.28-88.69-19.8-103.7-23-48.26-10.29-551.33-95.63-556.34-96.47l-49.6-8.51c-.83-.16-64.73-10.2-138.16-34.68,0,0-10.83-5.6-18.21-8.12-5.68-1.94-11.12-.9-16.68-1.4-5.56-.49-24.39-2.54-40.78-3.85-3.6-7.64-7.3-15.44-10.97-23.34,5.17-11.44,31.61-72.04,33.48-118.67,1.68-41.77-11.81-86.03-38.2-122.42-23.82-32.84-53.13-48.51-64.44-59.24-7.59-7.2-15.99-19.75-15.99-19.75,0,0-22.83,42.95-34.52,80.98-11.69,38.03-15.06,103.55,5.55,142.8,25.84,49.2,65.38,77.25,87.36,89.19,8.2,4.45,14.66,7.33,18.73,9,2.75,6.84,5.64,13.7,8.73,20.64-37.44-2.93-89.09-6.86-169.54-17.03-39.26-4.96-66.05-8.83-83.99-11.65-8.79-17.07-16.36-34.92-22.63-53.15,9.5-1.79,47.32-9.93,60.2-28.09,16.37-23.06,19.66-58.9-.51-89.49-17.73-26.88-32.85-43.13-48.54-68.2-14.22-22.73-22.29-42.54-22.29-42.54,0,0-29.64,26.46-65.01,36.77-35.38,10.31-62.96,64.97-22.91,112.33,33.67,39.83,79.2,68.96,92.84,77.22,6.06,19.21,12.54,36.93,21.66,55.2-19.96-3.01-27.54-4.27-27.61-4.28,0,0-28.83-5.19-37.46-9.22-8.62-4.03-25.15-11.79-37.33-18.53-1.17-4-17.73-60.22-29.47-87.57-12.17-28.36-35.32-56.92-68.78-72.59-33.45-15.67-92-19.34-121.05-22.88-27.56-3.36-36.91-3.63-50.86-9.27-.75-.31-1.78-.35-.87,.81,4.94,6.29,21.34,28.71,27.48,56.35,7.27,32.72,12.75,81.08,59.41,116.35,46.67,35.27,95.55,35.94,127.55,34.1,21.48-1.24,39.61-7.58,49.23-11.63,13.92,8.04,27.93,15.95,42.01,23.46-25.75,6.45-50.61,13.38-75.72,20.95-4.27-2.55-12.41-7.07-24.24-12.26-27.59-12.11-81.9-21.96-147.8-10.22-52.57,9.37-114,53.89-141.55,93.1-27.55,39.2-51.56,92.64-51.56,92.64Zm2439.48-150.89l-.8,1.26c-16.48,7.42-33.75,15.04-50.57,22.75-3.46-1.51-11.46-4.74-23.55-8.13-9.15-2.56-21.32-4.43-35.73-4.91,32.94-11.21,63.8-26.81,79.27-27.83,.67-.04,1.24-.03,1.85-.04,10.14,5.34,20.05,10.98,29.53,16.91Zm-238.45,553c-10.6,.03-24.59,.24-42.95,.77,.39-5.4,.97-10.88,1.7-16.36,4.43,1.27,12.45,3.38,21.78,4.94,7.48,4.18,13.94,7.7,19.47,10.65Zm-234.13,208.89c2.9,8.29,5.73,16.99,9.5,25.39-10.34-6.27-35.25-21.52-57.74-35.3,5.52-1.97,12.07-4.21,19.28-6.52,13.31,8.63,23.89,13.26,28.55,15.09,.14,.45,.26,.89,.41,1.35Zm263.51-190.22c17.93,4.52,126.17,33.7,221.61,56.09-101.86,25.7-208.03,69.73-286.22,114.88-48.51,28.02-99.36,53.35-133.03,68.1-10.93-4.03-41.15-14.98-45.17-16.43-5.82-9.92-9.86-21.48-13.78-32.65-.32-.96-.6-1.94-.91-2.9,3.38-2.67,17.26-14.03,31.33-31.36,32.09-9.76,65.17-25.54,89.4-56.73,27.82-35.8,32.65-87.2,33.38-98.27,7-2.18,13.96-4.23,20.76-6.14,8.96,.38,43.59,1.98,82.61,5.41Z"/><path class="cls-1" d="M2000.25,1286.17c-7.44-7.65-56.94-47.74-94.07-72.43-18.15-12.07-56.11-41.28-90.39-68.13-.18-.29-.36-.58-.57-.86-3.15-4.31-13.76-14.23-22.48-20.84-8.71-6.62-28.31-24.96-34.54-29.57-4.17-3.08-14.41-13.3-21.47-20.48-3.46-5.11-7.76-10.17-12.3-15.19-.06-.1-.12-.21-.19-.31-.19-2.18-.73-4.8-1.87-7.96-3.17-8.76-10.99-24.64-26.97-43.52-8.95-10.57-23.07-23.87-33.77-33.53-3.87-5.05-7.62-9.52-11.12-13.01-18.96-18.88-89.49-73.13-108.3-83.17-14.18-7.57-49.6-24.87-68.24-33.62-12.33-9.79-28.32-23-38.01-32.96-25.51-26.22-59.22-53.42-86.43-60.91-27.21-7.48-60.29-7.56-82.62,1.62-15.89,6.53-36.98,21.2-47,36.41-7.35,11.16-13.12,18.51-17.2,23.25-4.01,.85-27.64,5.87-37.9,7.96-8,1.64-23.92,3.29-24.21,7.53-.29,4.24,5.01,8.8,20.11,10.18,8.88,.81,25.06,5.37,36.51,8.2,2.21,3.32,4.47,6.74,6,9.75,4.46,8.81,7.04,22.96,11.98,35.67,13.29,34.17,19.7,46.63,27.1,84.29,.7,5.57,1.56,11.88,2.63,19.08,4.48,30.03,18.1,68.22,49.27,112.69,40.33,57.54,124.71,101.81,197.27,109.3-6.53,4.33-13.95,9.37-22.21,15.17-31.64,22.23-61.24,40.78-64.12,42.92-.44,.33-.92,.76-1.4,1.26-.26,.27-.52,.58-.78,.89-3.25,.93-7,1.99-9.61,2.66-5.56,1.42-22.23,6.74-26.04,10.59-3.81,3.85-17.61,23.76-17.6,24.8,0,1.04,18.79-.11,22.95-2.57,4.16-2.46,33.09-4.74,33.09-4.74l4.12-.16s1.05-1.27-.37,1.28c-2.67,4.79-.85,8.46,1.22,15.17,2.06,6.71,12.85-6.37,21.04-8.93,6.14-1.92,21.54,2.74,27.41,.73,1.96-.67,.11-8.39,.33-8.9,.99-2.31,3.78-6.78,6.57-11.17,.06-.03,.14-.07,.14-.07,0,0,39.88-39.21,55.67-54.48,6.13-5.93,18.62-15.54,31.59-25.08,54.98-5.57,99.87-21.86,107.59-25.83,3.56-1.83,14.15-6.71,26.45-12.45,12.27-1.03,31.51-.42,54.89,7.98,36.54,13.12,66.52,30.38,90.8,28.43,33.03,21.12,88.57,55.8,111.56,75.08,27.5,23.06,43.3,34.91,47.71,31.14,4.49-3.83,1.21-7.61,1.21-7.61,0,0,17.7,7.99,20.85,2.35,3.15-5.64-5.5-18.88-14.25-27.88Zm-481.5-59.87c-11.89,9.06-65.57,53.09-76.15,61.77-4.73,2.24-14.12,4.02-18.72,5.24-.53-2.82-1.39-6.49-2.26-9.32,9.85-9.75,30.05-29.24,42.76-37.52,10.14-6.61,33-19.73,50.61-29.62,5.16,.04,10.28-.04,15.36-.24-4.3,3.79-8.37,7.23-11.61,9.7Z"/><path class="cls-2" d="M7.04,135.35c-9.94-15.62-8.52-33.14-.95-28.88,7.58,4.26,18.94,14.2,73.86,27.46,2,.48,4,.95,6,1.4-12.54-7.99-24.52-16.71-35.65-26.27-33.62-28.88-29.36-47.35-27.94-54.45,1.42-7.1,9.47-2.37,30.78,12.78,21.31,15.15,63.92,37.41,108.43,47.82,44.51,10.42,85.7,11.36,105.59,15.62,19.89,4.26,24.62,13.73,37.88,32.67,13.26,18.94,38.35,73.39,88.07,115.53,23.69,20.08,47.69,32.73,66.33,40.48,13.83-1.89,28.5-4.69,41.86-11.37,25.27-12.64,44.23-27.38,80.03-16.85,5.95,1.75,11.5,4.29,16.65,7.38,.46-.22,.91-.44,1.38-.66,27.24-13.15,50.59-33.56,72.85-66.43,26.31-38.84,28.95-62.8,29.48-73.05,.53-10.25,5.34-20.28,23.09-32.22,17.75-11.93,34.55-38.47,52.38-68.39,17.83-29.92,15.97-59.14,23.56-57.89,7.65,1.25,16.1,16.95,16.2,31.52,.07,10.35-1.63,30.09-7.75,50.83,.73-1,1.46-2.02,2.17-3.05,17.32-25.26,22.04-47.05,27.17-41.78,12.15,12.47,11.74,47.01,.92,73.66-2.92,7.19-7.07,14.61-11.93,21.93,11.02-8.61,21.78-18.07,25.45-21.39,5.29-4.77,15.26-16.49,19.38-12.68,4.12,3.81,8.71,23.43-6.42,54.39-6.78,13.88-15.49,26.38-25.28,37.14,13.99-6.88,24.4-13.9,30.62-18.07,18.02-12.09,20.34-4.2,18.04,6.42-3.61,16.69-13.98,33.9-29.42,49.02,1.29-.28,2.58-.56,3.87-.88,6.45-1.58,16.83-8.97,20.21,.14,4.22,11.38-8.42,20.31-16.08,25.71-13.61,9.59-29.1,17.8-45.41,23.69,1.86,.28,3.72,.49,5.62,.5,7.07,.05,14.26-.9,21.27-1.04,8.67-.16,12.22,6.36,9.61,15.03-2.69,8.95-14.1,15.96-22.36,19.26-3.02,1.2-6.21,2.27-9.51,3.21,.45,.75,.77,1.63,.92,2.71,1.53,11.05-5.8,22.68-15.97,28.32-7.24,4.02-15.14,5-23.14,6.26-.04,7.38-3.29,16.66-6.47,20.33-10.03,11.55-25.54,20.7-39.74,26.18-27.43,10.6-64.53,2.94-100.02,2.98-.61,8-1.54,15.12-2.38,20.43-1.45,9.08-4.41,21.91-6.45,31.07,.4,7.69,1.05,19.41,1.71,27.9,1.05,13.69,1.65,18.81-.98,19.87-2.63,1.05-8.5-6.7-13.24-16.18-3.08-6.16-6.6-12.53-9.27-17.84-3.63-.27-7.33-.69-10.74-1.12-12.64-1.58-22.64-7.37-30.01-5.27-7.37,2.11-15.27,26.33-22.11,46.33-6.84,20.01-24.75,42.12-63.18,61.6-27.7,14.04-48.57,16.32-63.19,22.61-.45,3.05-1.1,6.14-1.1,8.34,0,16.95,1.17,33.91,4.09,50.62,2.87,16.4,5.97,33.28,12.3,48.76,3.31,8.09,8.57,16.09,11.14,24.42,3.76,12.22-23.09,16.37-31.7,15.11-7.53-1.11-7-5.58-8.44-12.12-3.6-16.35-7.22-32.98-9.15-49.62-1.15-9.95-2.07-20.1-2.72-30.3-.96,12.69-1.72,26.86-1.56,38.45,.39,28.37,2.36,47.28,1.18,52.01-1.18,4.73-17.73,2.76-24.82,1.58-7.09-1.18-10.24-10.24-11.43-21.28-.09-.81-.2-1.72-.32-2.71-.33,7.52-1.02,14.93-2.89,21.85-1.78,6.59-10.52,5.05-16.89,6.13-8.05,1.36-13.42-2.22-14.18-10.29-1.26-13.4,.05-24,1.18-37.43,.1-1.13,.2-2.21,.31-3.27-3.01,8.8-6.28,17.5-9.83,26.11-3.09,7.5-4.41,15.29-10.58,15.77-7.64,.59-20.33-1.29-20.88-10.64-.25-4.31,10.01-31.17,14.4-41.8,9.78-23.69,23.11-45.76,33.47-69.19,4.97-11.24,11.85-21.4,18.83-31.43,.23-.33,.55-.75,.92-1.24-.31-6.68-.88-13-1.9-18.86-3.69-21.06-3.69-60.02,3.69-101.62,.59-3.32,1.38-6.92,2.35-10.74-7.47,.73-14.6,.85-22.07,.49-12.96-.62-32-2.44-54.74-10.19-12.3-4.19-20.41-11.05-25.62-17.29-29.04,7.34-42.63,6.78-53.56-.69-11.81-8.08-9.95-13.06,3.11-16.79,5.59-1.6,14.15-4.91,23.51-9.1-8.69,2.38-17.08,3.75-24.82,3.55-29.21-.76-42.01-11.04-47.44-17.4-5.43-6.36-.99-9.98,12.18-13.99,5.93-1.81,14.81-4.94,25.19-9.12-3.86,.81-7.42,1.38-10.55,1.64-25.67,2.11-43.08-2.68-53.27-11.14-10.18-8.46-16.44-20.38-8.6-20.72,6.61-.28,20.78-.1,50.32-6.33-18.74,1.24-36.25,1.31-47.98-.71-36.06-6.22-55.99-24.52-59.69-32.33-3.7-7.81,8.1-5.81,17.56-4.99,5.36,.47,19.17,1.46,37.9,1.56-13.69-1.54-26.63-3.82-37.31-6.92-35.36-10.28-42.34-25.9-45.22-32.48-2.88-6.58,5.34-5.34,19.73-3.29,11.49,1.64,25.87,1.71,43.54,.83-12.13-2.58-24.99-7.05-39.43-14.4C16.72,204-1.78,171.52,11.78,171.52c6.64,0,22.61,9.46,56.32,13.98,.91,.12,1.84,.24,2.78,.36-.29-.11-.59-.21-.87-.33-30.78-12.31-53.03-34.56-62.97-50.19Z"/></g></svg>